<?xml version="1.0" encoding="utf-8"?>
<!-- Generator: Adobe Illustrator 23.0.1, SVG Export Plug-In . SVG Version: 6.00 Build 0)  -->
<svg version="1.1" id="Capa_1" xmlns="http://www.w3.org/2000/svg" xmlns:xlink="http://www.w3.org/1999/xlink" x="0px" y="0px"
	 viewBox="0 0 178.2 46.39" style="enable-background:new 0 0 178.2 46.39;" xml:space="preserve">
<style type="text/css">
	.st0{fill:#FFFFFF;}
</style>
<g id="XMLID_55_">
	<path class="st0" d="M123.1,32.4v2c0,6.8,3.4,11.7,10.6,11.7c3.6,0,6.5-1.5,8.2-3.8l0.7,3.2h6.9v-13h-8v0.9c0,3.3-2.1,5.8-5.4,5.8
		c-3.2,0-4.8-2.1-4.8-5.1v-1.5L123.1,32.4L123.1,32.4z M109.3,45.4h8v-13h-8V45.4z M76.7,32.4v0.9c0,7.4,3.8,12.7,11.2,12.7
		c3.5,0,6.3-1.5,8-3.8l0.6,3.1h6.9v-13h-8v0.9c0,3.3-2.1,5.8-5.4,5.8c-3.3,0-5.1-2.4-5.1-5.6v-1L76.7,32.4L76.7,32.4z M63.5,45.4h8
		v-13h-8V45.4L63.5,45.4z M31.6,32.4v0.5C31.6,41,37,46.1,45,46.1c8,0,13.3-5.1,13.3-13.2v-0.5h-8v1.1c0,3.4-1.9,5.8-5.3,5.8
		c-3.3,0-5.3-2.4-5.3-5.8v-1.1H31.6L31.6,32.4z M18.8,45.4h8v-13h-8V45.4z M0.2,45.4h8.1v-13H0.2V45.4z M26.9,25.5v-1.4
		c0-7.2-3.5-12.3-10.9-12.3c-3.3,0-6,1.3-7.7,3.3V0H0.2v25.5h8.1v-0.8c0-3.4,2.1-5.8,5.4-5.8c3.3,0,5.1,2.4,5.1,5.7v1L26.9,25.5
		L26.9,25.5z M58.4,25.5V25c0-8-5.4-13.2-13.3-13.2c-8,0-13.4,5.2-13.4,13.2v0.5h8.1v-1c0-3.3,1.9-5.8,5.3-5.8
		c3.4,0,5.3,2.5,5.3,5.8v1H58.4L58.4,25.5z M63.5,25.5h8V0h-8V25.5z M103.3,25.5v-13h-6.9l-0.6,3.1c-1.7-2.2-4.4-3.8-8-3.8
		c-7.4,0-11.2,5.3-11.2,12.7v1h8.1v-1c0-3.3,1.7-5.7,5.1-5.7c3.3,0,5.4,2.5,5.4,5.8v0.8L103.3,25.5L103.3,25.5z M109.3,25.5h8V0h-8
		V25.5L109.3,25.5z M123.1,25.5h8.1v-13h-8.1V25.5z M141.4,25.5h8v-13h-8V25.5L141.4,25.5z M172.4,25.5l5.4-8.3v-4.7h-23.6v6.6h13.6
		l-4.2,6.4H172.4L172.4,25.5z M178.2,45.4v-6.6h-14.4l4.2-6.4h-8.8l-5.4,8.3v4.7L178.2,45.4L178.2,45.4z"/>
</g>
</svg>
